<svg xmlns="http://www.w3.org/2000/svg" xmlns:xlink="http://www.w3.org/1999/xlink" contentStyleType="text/css" data-diagram-type="CLASS" height="235px" preserveAspectRatio="none" style="width:1213px;height:235px;background:#FFFFFF;" version="1.1" viewBox="0 0 1213 235" width="1213px" zoomAndPan="magnify"><defs/><g><!--class AbstractFactory--><g class="entity" data-entity="AbstractFactory" data-source-line="1" data-uid="ent0002" id="entity_AbstractFactory"><rect fill="#F1F1F1" height="80.5938" rx="2.5" ry="2.5" style="stroke:#181818;stroke-width:0.5;" width="217.4678" x="142.5" y="7"/><ellipse cx="191.3872" cy="23" fill="#A9DCDF" rx="11" ry="11" style="stroke:#181818;stroke-width:1;"/><path d="M191.4966,18.3438 L190.3403,23.4219 L192.6685,23.4219 L191.4966,18.3438 Z M190.0122,16.1094 L192.9966,16.1094 L196.356,28.5 L193.9028,28.5 L193.1372,25.4375 L189.856,25.4375 L189.106,28.5 L186.6685,28.5 L190.0122,16.1094 Z " fill="#000000"/><text fill="#000000" font-family="sans-serif" font-size="14" font-style="italic" lengthAdjust="spacing" textLength="111.1934" x="211.8872" y="27.8467">AbstractFactory</text><line style="stroke:#181818;stroke-width:0.5;" x1="143.5" x2="358.9678" y1="39" y2="39"/><line style="stroke:#181818;stroke-width:0.5;" x1="143.5" x2="358.9678" y1="47" y2="47"/><ellipse cx="153.5" cy="60.6484" fill="#84BE84" rx="3" ry="3" style="stroke:#038048;stroke-width:1;"/><text fill="#000000" font-family="sans-serif" font-size="14" lengthAdjust="spacing" textLength="191.4131" x="162.5" y="63.9951">createProductA(): ProductA</text><ellipse cx="153.5" cy="76.9453" fill="#84BE84" rx="3" ry="3" style="stroke:#038048;stroke-width:1;"/><text fill="#000000" font-family="sans-serif" font-size="14" lengthAdjust="spacing" textLength="191.4678" x="162.5" y="80.292">createProductB(): ProductB</text></g><!--class ConcreteFactory1--><g class="entity" data-entity="ConcreteFactory1" data-source-line="6" data-uid="ent0003" id="entity_ConcreteFactory1"><rect fill="#F1F1F1" height="80.5938" rx="2.5" ry="2.5" style="stroke:#181818;stroke-width:0.5;" width="226.375" x="7" y="148"/><ellipse cx="53.5801" cy="164" fill="#ADD1B2" rx="11" ry="11" style="stroke:#181818;stroke-width:1;"/><path d="M56.5488,169.6406 Q55.9707,169.9375 55.3301,170.0781 Q54.6895,170.2344 53.9863,170.2344 Q51.4863,170.2344 50.1582,168.5938 Q48.8457,166.9375 48.8457,163.8125 Q48.8457,160.6875 50.1582,159.0313 Q51.4863,157.375 53.9863,157.375 Q54.6895,157.375 55.3301,157.5313 Q55.9863,157.6875 56.5488,157.9844 L56.5488,160.7031 Q55.9238,160.125 55.3301,159.8594 Q54.7363,159.5781 54.1113,159.5781 Q52.7676,159.5781 52.0801,160.6563 Q51.3926,161.7188 51.3926,163.8125 Q51.3926,165.9063 52.0801,166.9844 Q52.7676,168.0469 54.1113,168.0469 Q54.7363,168.0469 55.3301,167.7813 Q55.9238,167.5 56.5488,166.9219 L56.5488,169.6406 Z " fill="#000000"/><text fill="#000000" font-family="sans-serif" font-size="14" lengthAdjust="spacing" textLength="124.7148" x="74.0801" y="168.8467">ConcreteFactory1</text><line style="stroke:#181818;stroke-width:0.5;" x1="8" x2="232.375" y1="180" y2="180"/><line style="stroke:#181818;stroke-width:0.5;" x1="8" x2="232.375" y1="188" y2="188"/><ellipse cx="18" cy="201.6484" fill="#84BE84" rx="3" ry="3" style="stroke:#038048;stroke-width:1;"/><text fill="#000000" font-family="sans-serif" font-size="14" lengthAdjust="spacing" textLength="200.3203" x="27" y="204.9951">createProductA(): ProductA1</text><ellipse cx="18" cy="217.9453" fill="#84BE84" rx="3" ry="3" style="stroke:#038048;stroke-width:1;"/><text fill="#000000" font-family="sans-serif" font-size="14" lengthAdjust="spacing" textLength="200.375" x="27" y="221.292">createProductB(): ProductB1</text></g><!--class ConcreteFactory2--><g class="entity" data-entity="ConcreteFactory2" data-source-line="11" data-uid="ent0005" id="entity_ConcreteFactory2"><rect fill="#F1F1F1" height="80.5938" rx="2.5" ry="2.5" style="stroke:#181818;stroke-width:0.5;" width="226.375" x="268" y="148"/><ellipse cx="314.5801" cy="164" fill="#ADD1B2" rx="11" ry="11" style="stroke:#181818;stroke-width:1;"/><path d="M317.5488,169.6406 Q316.9707,169.9375 316.3301,170.0781 Q315.6895,170.2344 314.9863,170.2344 Q312.4863,170.2344 311.1582,168.5938 Q309.8457,166.9375 309.8457,163.8125 Q309.8457,160.6875 311.1582,159.0313 Q312.4863,157.375 314.9863,157.375 Q315.6895,157.375 316.3301,157.5313 Q316.9863,157.6875 317.5488,157.9844 L317.5488,160.7031 Q316.9238,160.125 316.3301,159.8594 Q315.7363,159.5781 315.1113,159.5781 Q313.7676,159.5781 313.0801,160.6563 Q312.3926,161.7188 312.3926,163.8125 Q312.3926,165.9063 313.0801,166.9844 Q313.7676,168.0469 315.1113,168.0469 Q315.7363,168.0469 316.3301,167.7813 Q316.9238,167.5 317.5488,166.9219 L317.5488,169.6406 Z " fill="#000000"/><text fill="#000000" font-family="sans-serif" font-size="14" lengthAdjust="spacing" textLength="124.7148" x="335.0801" y="168.8467">ConcreteFactory2</text><line style="stroke:#181818;stroke-width:0.5;" x1="269" x2="493.375" y1="180" y2="180"/><line style="stroke:#181818;stroke-width:0.5;" x1="269" x2="493.375" y1="188" y2="188"/><ellipse cx="279" cy="201.6484" fill="#84BE84" rx="3" ry="3" style="stroke:#038048;stroke-width:1;"/><text fill="#000000" font-family="sans-serif" font-size="14" lengthAdjust="spacing" textLength="200.3203" x="288" y="204.9951">createProductA(): ProductA2</text><ellipse cx="279" cy="217.9453" fill="#84BE84" rx="3" ry="3" style="stroke:#038048;stroke-width:1;"/><text fill="#000000" font-family="sans-serif" font-size="14" lengthAdjust="spacing" textLength="200.375" x="288" y="221.292">createProductB(): ProductB2</text></g><!--class ProductA--><g class="entity" data-entity="ProductA" data-source-line="16" data-uid="ent0007" id="entity_ProductA"><rect fill="#F1F1F1" height="64.2969" rx="2.5" ry="2.5" style="stroke:#181818;stroke-width:0.5;" width="142.9355" x="618.5" y="15.5"/><ellipse cx="654.9418" cy="31.5" fill="#A9DCDF" rx="11" ry="11" style="stroke:#181818;stroke-width:1;"/><path d="M655.0512,26.8438 L653.8949,31.9219 L656.223,31.9219 L655.0512,26.8438 Z M653.5668,24.6094 L656.5512,24.6094 L659.9105,37 L657.4574,37 L656.6918,33.9375 L653.4105,33.9375 L652.6605,37 L650.223,37 L653.5668,24.6094 Z " fill="#000000"/><text fill="#000000" font-family="sans-serif" font-size="14" font-style="italic" lengthAdjust="spacing" textLength="63.2871" x="673.7066" y="36.3467">ProductA</text><line style="stroke:#181818;stroke-width:0.5;" x1="619.5" x2="760.4355" y1="47.5" y2="47.5"/><line style="stroke:#181818;stroke-width:0.5;" x1="619.5" x2="760.4355" y1="55.5" y2="55.5"/><ellipse cx="629.5" cy="69.1484" fill="#84BE84" rx="3" ry="3" style="stroke:#038048;stroke-width:1;"/><text fill="#000000" font-family="sans-serif" font-size="14" lengthAdjust="spacing" textLength="116.9355" x="638.5" y="72.4951">operation(): void</text></g><!--class ProductB--><g class="entity" data-entity="ProductB" data-source-line="20" data-uid="ent0008" id="entity_ProductB"><rect fill="#F1F1F1" height="64.2969" rx="2.5" ry="2.5" style="stroke:#181818;stroke-width:0.5;" width="142.9355" x="974.5" y="15.5"/><ellipse cx="1010.9295" cy="31.5" fill="#A9DCDF" rx="11" ry="11" style="stroke:#181818;stroke-width:1;"/><path d="M1011.0389,26.8438 L1009.8826,31.9219 L1012.2107,31.9219 L1011.0389,26.8438 Z M1009.5545,24.6094 L1012.5389,24.6094 L1015.8982,37 L1013.4451,37 L1012.6795,33.9375 L1009.3982,33.9375 L1008.6482,37 L1006.2107,37 L1009.5545,24.6094 Z " fill="#000000"/><text fill="#000000" font-family="sans-serif" font-size="14" font-style="italic" lengthAdjust="spacing" textLength="63.3145" x="1029.6916" y="36.3467">ProductB</text><line style="stroke:#181818;stroke-width:0.5;" x1="975.5" x2="1116.4355" y1="47.5" y2="47.5"/><line style="stroke:#181818;stroke-width:0.5;" x1="975.5" x2="1116.4355" y1="55.5" y2="55.5"/><ellipse cx="985.5" cy="69.1484" fill="#84BE84" rx="3" ry="3" style="stroke:#038048;stroke-width:1;"/><text fill="#000000" font-family="sans-serif" font-size="14" lengthAdjust="spacing" textLength="116.9355" x="994.5" y="72.4951">operation(): void</text></g><!--class ProductA1--><g class="entity" data-entity="ProductA1" data-source-line="24" data-uid="ent0009" id="entity_ProductA1"><rect fill="#F1F1F1" height="64.2969" rx="2.5" ry="2.5" style="stroke:#181818;stroke-width:0.5;" width="142.9355" x="529.5" y="156.5"/><ellipse cx="561.9335" cy="172.5" fill="#ADD1B2" rx="11" ry="11" style="stroke:#181818;stroke-width:1;"/><path d="M564.9023,178.1406 Q564.3242,178.4375 563.6835,178.5781 Q563.0429,178.7344 562.3398,178.7344 Q559.8398,178.7344 558.5117,177.0938 Q557.1992,175.4375 557.1992,172.3125 Q557.1992,169.1875 558.5117,167.5313 Q559.8398,165.875 562.3398,165.875 Q563.0429,165.875 563.6835,166.0313 Q564.3398,166.1875 564.9023,166.4844 L564.9023,169.2031 Q564.2773,168.625 563.6835,168.3594 Q563.0898,168.0781 562.4648,168.0781 Q561.121,168.0781 560.4335,169.1563 Q559.746,170.2188 559.746,172.3125 Q559.746,174.4063 560.4335,175.4844 Q561.121,176.5469 562.4648,176.5469 Q563.0898,176.5469 563.6835,176.2813 Q564.2773,176 564.9023,175.4219 L564.9023,178.1406 Z " fill="#000000"/><text fill="#000000" font-family="sans-serif" font-size="14" lengthAdjust="spacing" textLength="72.1943" x="579.8077" y="177.3467">ProductA1</text><line style="stroke:#181818;stroke-width:0.5;" x1="530.5" x2="671.4355" y1="188.5" y2="188.5"/><line style="stroke:#181818;stroke-width:0.5;" x1="530.5" x2="671.4355" y1="196.5" y2="196.5"/><ellipse cx="540.5" cy="210.1484" fill="#84BE84" rx="3" ry="3" style="stroke:#038048;stroke-width:1;"/><text fill="#000000" font-family="sans-serif" font-size="14" lengthAdjust="spacing" textLength="116.9355" x="549.5" y="213.4951">operation(): void</text></g><!--class ProductA2--><g class="entity" data-entity="ProductA2" data-source-line="28" data-uid="ent0011" id="entity_ProductA2"><rect fill="#F1F1F1" height="64.2969" rx="2.5" ry="2.5" style="stroke:#181818;stroke-width:0.5;" width="142.9355" x="707.5" y="156.5"/><ellipse cx="739.9335" cy="172.5" fill="#ADD1B2" rx="11" ry="11" style="stroke:#181818;stroke-width:1;"/><path d="M742.9023,178.1406 Q742.3242,178.4375 741.6835,178.5781 Q741.0429,178.7344 740.3398,178.7344 Q737.8398,178.7344 736.5117,177.0938 Q735.1992,175.4375 735.1992,172.3125 Q735.1992,169.1875 736.5117,167.5313 Q737.8398,165.875 740.3398,165.875 Q741.0429,165.875 741.6835,166.0313 Q742.3398,166.1875 742.9023,166.4844 L742.9023,169.2031 Q742.2773,168.625 741.6835,168.3594 Q741.0898,168.0781 740.4648,168.0781 Q739.121,168.0781 738.4335,169.1563 Q737.746,170.2188 737.746,172.3125 Q737.746,174.4063 738.4335,175.4844 Q739.121,176.5469 740.4648,176.5469 Q741.0898,176.5469 741.6835,176.2813 Q742.2773,176 742.9023,175.4219 L742.9023,178.1406 Z " fill="#000000"/><text fill="#000000" font-family="sans-serif" font-size="14" lengthAdjust="spacing" textLength="72.1943" x="757.8077" y="177.3467">ProductA2</text><line style="stroke:#181818;stroke-width:0.5;" x1="708.5" x2="849.4355" y1="188.5" y2="188.5"/><line style="stroke:#181818;stroke-width:0.5;" x1="708.5" x2="849.4355" y1="196.5" y2="196.5"/><ellipse cx="718.5" cy="210.1484" fill="#84BE84" rx="3" ry="3" style="stroke:#038048;stroke-width:1;"/><text fill="#000000" font-family="sans-serif" font-size="14" lengthAdjust="spacing" textLength="116.9355" x="727.5" y="213.4951">operation(): void</text></g><!--class ProductB1--><g class="entity" data-entity="ProductB1" data-source-line="32" data-uid="ent0013" id="entity_ProductB1"><rect fill="#F1F1F1" height="64.2969" rx="2.5" ry="2.5" style="stroke:#181818;stroke-width:0.5;" width="142.9355" x="885.5" y="156.5"/><ellipse cx="917.9212" cy="172.5" fill="#ADD1B2" rx="11" ry="11" style="stroke:#181818;stroke-width:1;"/><path d="M920.89,178.1406 Q920.3119,178.4375 919.6712,178.5781 Q919.0306,178.7344 918.3275,178.7344 Q915.8275,178.7344 914.4994,177.0938 Q913.1869,175.4375 913.1869,172.3125 Q913.1869,169.1875 914.4994,167.5313 Q915.8275,165.875 918.3275,165.875 Q919.0306,165.875 919.6712,166.0313 Q920.3275,166.1875 920.89,166.4844 L920.89,169.2031 Q920.265,168.625 919.6712,168.3594 Q919.0775,168.0781 918.4525,168.0781 Q917.1087,168.0781 916.4212,169.1563 Q915.7337,170.2188 915.7337,172.3125 Q915.7337,174.4063 916.4212,175.4844 Q917.1087,176.5469 918.4525,176.5469 Q919.0775,176.5469 919.6712,176.2813 Q920.265,176 920.89,175.4219 L920.89,178.1406 Z " fill="#000000"/><text fill="#000000" font-family="sans-serif" font-size="14" lengthAdjust="spacing" textLength="72.2217" x="935.7926" y="177.3467">ProductB1</text><line style="stroke:#181818;stroke-width:0.5;" x1="886.5" x2="1027.4355" y1="188.5" y2="188.5"/><line style="stroke:#181818;stroke-width:0.5;" x1="886.5" x2="1027.4355" y1="196.5" y2="196.5"/><ellipse cx="896.5" cy="210.1484" fill="#84BE84" rx="3" ry="3" style="stroke:#038048;stroke-width:1;"/><text fill="#000000" font-family="sans-serif" font-size="14" lengthAdjust="spacing" textLength="116.9355" x="905.5" y="213.4951">operation(): void</text></g><!--class ProductB2--><g class="entity" data-entity="ProductB2" data-source-line="36" data-uid="ent0015" id="entity_ProductB2"><rect fill="#F1F1F1" height="64.2969" rx="2.5" ry="2.5" style="stroke:#181818;stroke-width:0.5;" width="142.9355" x="1063.5" y="156.5"/><ellipse cx="1095.9212" cy="172.5" fill="#ADD1B2" rx="11" ry="11" style="stroke:#181818;stroke-width:1;"/><path d="M1098.89,178.1406 Q1098.3119,178.4375 1097.6712,178.5781 Q1097.0306,178.7344 1096.3275,178.7344 Q1093.8275,178.7344 1092.4994,177.0938 Q1091.1869,175.4375 1091.1869,172.3125 Q1091.1869,169.1875 1092.4994,167.5313 Q1093.8275,165.875 1096.3275,165.875 Q1097.0306,165.875 1097.6712,166.0313 Q1098.3275,166.1875 1098.89,166.4844 L1098.89,169.2031 Q1098.265,168.625 1097.6712,168.3594 Q1097.0775,168.0781 1096.4525,168.0781 Q1095.1087,168.0781 1094.4212,169.1563 Q1093.7337,170.2188 1093.7337,172.3125 Q1093.7337,174.4063 1094.4212,175.4844 Q1095.1087,176.5469 1096.4525,176.5469 Q1097.0775,176.5469 1097.6712,176.2813 Q1098.265,176 1098.89,175.4219 L1098.89,178.1406 Z " fill="#000000"/><text fill="#000000" font-family="sans-serif" font-size="14" lengthAdjust="spacing" textLength="72.2217" x="1113.7926" y="177.3467">ProductB2</text><line style="stroke:#181818;stroke-width:0.5;" x1="1064.5" x2="1205.4355" y1="188.5" y2="188.5"/><line style="stroke:#181818;stroke-width:0.5;" x1="1064.5" x2="1205.4355" y1="196.5" y2="196.5"/><ellipse cx="1074.5" cy="210.1484" fill="#84BE84" rx="3" ry="3" style="stroke:#038048;stroke-width:1;"/><text fill="#000000" font-family="sans-serif" font-size="14" lengthAdjust="spacing" textLength="116.9355" x="1083.5" y="213.4951">operation(): void</text></g><!--reverse link AbstractFactory to ConcreteFactory1--><g class="link" data-entity-1="AbstractFactory" data-entity-2="ConcreteFactory1" data-source-line="7" data-uid="lnk4" id="link_AbstractFactory_ConcreteFactory1"><path d="M188.9441,100.9286 C169.9541,119.5386 161.97,129.05 145.89,147.66" fill="none" id="AbstractFactory-backto-ConcreteFactory1" style="stroke:#181818;stroke-width:1;stroke-dasharray:7,7;"/><polygon fill="none" points="201.8,88.33,184.7446,96.6433,193.1436,105.2139,201.8,88.33" style="stroke:#181818;stroke-width:1;"/></g><!--reverse link AbstractFactory to ConcreteFactory1--><g class="link" data-entity-1="AbstractFactory" data-entity-2="ConcreteFactory1" data-source-line="40" data-uid="lnk17" id="link_AbstractFactory_ConcreteFactory1"><path codeLine="40" d="M214.0695,101.9826 C198.0795,120.5926 188.97,129.05 169.89,147.66" fill="none" id="AbstractFactory-backto-ConcreteFactory1-1" style="stroke:#181818;stroke-width:1;stroke-dasharray:7,7;"/><polygon fill="none" points="225.8,88.33,209.5186,98.0724,218.6203,105.8928,225.8,88.33" style="stroke:#181818;stroke-width:1;"/></g><!--reverse link AbstractFactory to ConcreteFactory2--><g class="link" data-entity-1="AbstractFactory" data-entity-2="ConcreteFactory2" data-source-line="12" data-uid="lnk6" id="link_AbstractFactory_ConcreteFactory2"><path d="M288.3094,102.0008 C304.2494,120.6108 313.22,129.05 332.09,147.66" fill="none" id="AbstractFactory-backto-ConcreteFactory2" style="stroke:#181818;stroke-width:1;stroke-dasharray:7,7;"/><polygon fill="none" points="276.6,88.33,283.7525,105.9039,292.8663,98.0976,276.6,88.33" style="stroke:#181818;stroke-width:1;"/></g><!--reverse link AbstractFactory to ConcreteFactory2--><g class="link" data-entity-1="AbstractFactory" data-entity-2="ConcreteFactory2" data-source-line="41" data-uid="lnk18" id="link_AbstractFactory_ConcreteFactory2"><path codeLine="41" d="M313.4359,100.9388 C332.3959,119.5488 340.22,129.05 356.08,147.66" fill="none" id="AbstractFactory-backto-ConcreteFactory2-1" style="stroke:#181818;stroke-width:1;stroke-dasharray:7,7;"/><polygon fill="none" points="300.59,88.33,309.233,105.2208,317.6389,96.6568,300.59,88.33" style="stroke:#181818;stroke-width:1;"/></g><!--reverse link ProductA to ProductA1--><g class="link" data-entity-1="ProductA" data-entity-2="ProductA1" data-source-line="25" data-uid="lnk10" id="link_ProductA_ProductA1"><path d="M648.3699,94.0825 C631.1699,116.9825 622.16,133.54 610.08,156.41" fill="none" id="ProductA-backto-ProductA1" style="stroke:#181818;stroke-width:1;"/><polygon fill="none" points="659.18,79.69,643.5725,90.4791,653.1674,97.6858,659.18,79.69" style="stroke:#181818;stroke-width:1;"/></g><!--reverse link ProductA to ProductA1--><g class="link" data-entity-1="ProductA" data-entity-2="ProductA1" data-source-line="42" data-uid="lnk19" id="link_ProductA_ProductA1"><path codeLine="42" d="M673.1771,95.645 C661.2171,118.545 649.72,133.54 632.38,156.41" fill="none" id="ProductA-backto-ProductA1-1" style="stroke:#181818;stroke-width:1;stroke-dasharray:7,7;"/><polygon fill="none" points="681.51,79.69,667.8588,92.8674,678.4955,98.4227,681.51,79.69" style="stroke:#181818;stroke-width:1;"/></g><!--reverse link ProductA to ProductA2--><g class="link" data-entity-1="ProductA" data-entity-2="ProductA2" data-source-line="29" data-uid="lnk12" id="link_ProductA_ProductA2"><path d="M707.5446,95.6021 C719.6546,118.5021 731.07,133.54 748.26,156.41" fill="none" id="ProductA-backto-ProductA2" style="stroke:#181818;stroke-width:1;"/><polygon fill="none" points="699.13,79.69,702.2406,98.4069,712.8487,92.7972,699.13,79.69" style="stroke:#181818;stroke-width:1;"/></g><!--reverse link ProductA to ProductA2--><g class="link" data-entity-1="ProductA" data-entity-2="ProductA2" data-source-line="43" data-uid="lnk20" id="link_ProductA_ProductA2"><path codeLine="43" d="M732.324,94.0342 C749.684,116.9342 758.62,133.54 770.56,156.41" fill="none" id="ProductA-backto-ProductA2-1" style="stroke:#181818;stroke-width:1;stroke-dasharray:7,7;"/><polygon fill="none" points="721.45,79.69,727.5426,97.6589,737.1054,90.4095,721.45,79.69" style="stroke:#181818;stroke-width:1;"/></g><!--reverse link ProductB to ProductB1--><g class="link" data-entity-1="ProductB" data-entity-2="ProductB1" data-source-line="33" data-uid="lnk14" id="link_ProductB_ProductB1"><path d="M1004.3699,94.0825 C987.1699,116.9825 978.16,133.54 966.08,156.41" fill="none" id="ProductB-backto-ProductB1" style="stroke:#181818;stroke-width:1;"/><polygon fill="none" points="1015.18,79.69,999.5725,90.4791,1009.1674,97.6858,1015.18,79.69" style="stroke:#181818;stroke-width:1;"/></g><!--reverse link ProductB to ProductB1--><g class="link" data-entity-1="ProductB" data-entity-2="ProductB1" data-source-line="44" data-uid="lnk21" id="link_ProductB_ProductB1"><path codeLine="44" d="M1029.1771,95.645 C1017.2171,118.545 1005.72,133.54 988.38,156.41" fill="none" id="ProductB-backto-ProductB1-1" style="stroke:#181818;stroke-width:1;stroke-dasharray:7,7;"/><polygon fill="none" points="1037.51,79.69,1023.8588,92.8674,1034.4955,98.4227,1037.51,79.69" style="stroke:#181818;stroke-width:1;"/></g><!--reverse link ProductB to ProductB2--><g class="link" data-entity-1="ProductB" data-entity-2="ProductB2" data-source-line="37" data-uid="lnk16" id="link_ProductB_ProductB2"><path d="M1063.5446,95.6021 C1075.6546,118.5021 1087.07,133.54 1104.26,156.41" fill="none" id="ProductB-backto-ProductB2" style="stroke:#181818;stroke-width:1;"/><polygon fill="none" points="1055.13,79.69,1058.2406,98.4069,1068.8487,92.7972,1055.13,79.69" style="stroke:#181818;stroke-width:1;"/></g><!--reverse link ProductB to ProductB2--><g class="link" data-entity-1="ProductB" data-entity-2="ProductB2" data-source-line="45" data-uid="lnk22" id="link_ProductB_ProductB2"><path codeLine="45" d="M1088.324,94.0342 C1105.684,116.9342 1114.62,133.54 1126.56,156.41" fill="none" id="ProductB-backto-ProductB2-1" style="stroke:#181818;stroke-width:1;stroke-dasharray:7,7;"/><polygon fill="none" points="1077.45,79.69,1083.5426,97.6589,1093.1054,90.4095,1077.45,79.69" style="stroke:#181818;stroke-width:1;"/></g><!--SRC=[fPB13i8W38RlF4MF6fCbS3HUXebdNm6XXoKRBAmQZVhkRhfDSSvjUY21jl__5QZQ5UIL9j2fAWg8w-EcNCwVuCm05g0zAiAjTsQlAPxDbz3iksdvafRiojZ3UEriMKPO6tD8iZp532rDX_81Ak_5Yd-mOW0hAgmAtxFHrkOkHwyeSRRI7LnY-YNocoGqvu17Gcl6uKAj-5qhEzpnFKinIVl-LQjB57L6QbILOEqzx-ddJ7sEj_KoY4lU4nSt]--></g></svg>