<svg xmlns="http://www.w3.org/2000/svg" xmlns:xlink="http://www.w3.org/1999/xlink" contentStyleType="text/css" data-diagram-type="CLASS" height="236px" preserveAspectRatio="none" style="width:208px;height:236px;background:#FFFFFF;" version="1.1" viewBox="0 0 208 236" width="208px" zoomAndPan="magnify"><defs/><g><!--class Singleton--><g class="entity" data-entity="Singleton" data-source-line="1" data-uid="ent0002" id="entity_Singleton"><rect fill="#F1F1F1" height="96.8906" rx="2.5" ry="2.5" style="stroke:#181818;stroke-width:0.5;" width="194.5947" x="7" y="7"/><ellipse cx="67.064" cy="23" fill="#ADD1B2" rx="11" ry="11" style="stroke:#181818;stroke-width:1;"/><path d="M70.0327,28.6406 Q69.4546,28.9375 68.814,29.0781 Q68.1733,29.2344 67.4702,29.2344 Q64.9702,29.2344 63.6421,27.5938 Q62.3296,25.9375 62.3296,22.8125 Q62.3296,19.6875 63.6421,18.0313 Q64.9702,16.375 67.4702,16.375 Q68.1733,16.375 68.814,16.5313 Q69.4702,16.6875 70.0327,16.9844 L70.0327,19.7031 Q69.4077,19.125 68.814,18.8594 Q68.2202,18.5781 67.5952,18.5781 Q66.2515,18.5781 65.564,19.6563 Q64.8765,20.7188 64.8765,22.8125 Q64.8765,24.9063 65.564,25.9844 Q66.2515,27.0469 67.5952,27.0469 Q68.2202,27.0469 68.814,26.7813 Q69.4077,26.5 70.0327,25.9219 L70.0327,28.6406 Z " fill="#000000"/><text fill="#000000" font-family="sans-serif" font-size="14" lengthAdjust="spacing" textLength="65.9668" x="87.564" y="27.8467">Singleton</text><line style="stroke:#181818;stroke-width:0.5;" x1="8" x2="200.5947" y1="39" y2="39"/><rect fill="none" height="6" style="stroke:#C82930;stroke-width:1;" width="6" x="15" y="49.6484"/><text fill="#000000" font-family="sans-serif" font-size="14" lengthAdjust="spacing" textLength="134.4424" x="27" y="55.9951">instance: Singleton</text><line style="stroke:#181818;stroke-width:0.5;" x1="8" x2="200.5947" y1="63.2969" y2="63.2969"/><ellipse cx="18" cy="76.9453" fill="#84BE84" rx="3" ry="3" style="stroke:#038048;stroke-width:1;"/><text fill="#000000" font-family="sans-serif" font-size="14" lengthAdjust="spacing" textLength="168.5947" x="27" y="80.292">getInstance(): Singleton</text><rect fill="#F24D5C" height="6" style="stroke:#C82930;stroke-width:1;" width="6" x="15" y="90.2422"/><text fill="#000000" font-family="sans-serif" font-size="14" lengthAdjust="spacing" textLength="90.9795" x="27" y="96.5889">constructor()</text></g><!--class instance--><g class="entity" data-entity="instance" data-source-line="7" data-uid="ent0003" id="entity_instance"><rect fill="#F1F1F1" height="48" rx="2.5" ry="2.5" style="stroke:#181818;stroke-width:0.5;" width="91.3086" x="59" y="181"/><ellipse cx="74" cy="197" fill="#ADD1B2" rx="11" ry="11" style="stroke:#181818;stroke-width:1;"/><path d="M76.9688,202.6406 Q76.3906,202.9375 75.75,203.0781 Q75.1094,203.2344 74.4063,203.2344 Q71.9063,203.2344 70.5781,201.5938 Q69.2656,199.9375 69.2656,196.8125 Q69.2656,193.6875 70.5781,192.0313 Q71.9063,190.375 74.4063,190.375 Q75.1094,190.375 75.75,190.5313 Q76.4063,190.6875 76.9688,190.9844 L76.9688,193.7031 Q76.3438,193.125 75.75,192.8594 Q75.1563,192.5781 74.5313,192.5781 Q73.1875,192.5781 72.5,193.6563 Q71.8125,194.7188 71.8125,196.8125 Q71.8125,198.9063 72.5,199.9844 Q73.1875,201.0469 74.5313,201.0469 Q75.1563,201.0469 75.75,200.7813 Q76.3438,200.5 76.9688,199.9219 L76.9688,202.6406 Z " fill="#000000"/><text fill="#000000" font-family="sans-serif" font-size="14" lengthAdjust="spacing" textLength="59.3086" x="88" y="201.8467">instance</text><line style="stroke:#181818;stroke-width:0.5;" x1="60" x2="149.3086" y1="213" y2="213"/><line style="stroke:#181818;stroke-width:0.5;" x1="60" x2="149.3086" y1="221" y2="221"/></g><!--link Singleton to instance--><g class="link" data-entity-1="Singleton" data-entity-2="instance" data-source-line="7" data-uid="lnk4" id="link_Singleton_instance"><path codeLine="7" d="M104.5,104.39 C104.5,129.96 104.5,154.28 104.5,174.7" fill="none" id="Singleton-to-instance" style="stroke:#181818;stroke-width:1;"/><polygon fill="#181818" points="104.5,180.7,108.5,171.7,104.5,175.7,100.5,171.7,104.5,180.7" style="stroke:#181818;stroke-width:1;"/><text fill="#000000" font-family="sans-serif" font-size="13" lengthAdjust="spacing" textLength="45.9634" x="105.5" y="147.0669">private</text></g><!--SRC=[Iyv9B2vM2CxCIyz9BSdFKwZcKb3GLaXFBV7CAov9p4jErT2qGaW39NKLCg4owEB9-K29ejBaalmY3KskMYukXAcwkdPmRGfM2WL5cMM99Qa0]--></g></svg>